<?xml version="1.0" encoding="UTF-8" standalone="no"?>
<svg
   enable-background="new 0 0 24 24"
   height="24"
   viewBox="0 0 24 24"
   width="24"
   fill="#b7b7b7"
   version="1.1"
   id="svg1"
   sodipodi:docname="dogear.complete.svg"
   inkscape:export-filename="dogear.complete.svg"
   inkscape:export-xdpi="96"
   inkscape:export-ydpi="96"
   xml:space="preserve"
   inkscape:version="1.4.2 (ebf0e940, 2025-05-08)"
   xmlns:inkscape="http://www.inkscape.org/namespaces/inkscape"
   xmlns:sodipodi="http://sodipodi.sourceforge.net/DTD/sodipodi-0.dtd"
   xmlns="http://www.w3.org/2000/svg"
   xmlns:svg="http://www.w3.org/2000/svg"><defs
     id="defs1" /><sodipodi:namedview
     id="namedview1"
     pagecolor="#ffffff"
     bordercolor="#000000"
     borderopacity="0.25"
     inkscape:showpageshadow="2"
     inkscape:pageopacity="0.0"
     inkscape:pagecheckerboard="0"
     inkscape:deskcolor="#d1d1d1"
     showgrid="false"
     inkscape:zoom="26.274056"
     inkscape:cx="10.885263"
     inkscape:cy="11.912892"
     inkscape:window-width="1680"
     inkscape:window-height="991"
     inkscape:window-x="0"
     inkscape:window-y="31"
     inkscape:window-maximized="1"
     inkscape:current-layer="svg1"><inkscape:page
       x="0"
       y="0"
       width="24"
       height="24"
       id="page2"
       margin="0"
       bleed="0" /></sodipodi:namedview><rect
     fill="none"
     height="24"
     width="24"
     id="rect1"
     x="0"
     y="0" /><path
     d="m 4.9238792,5.3044832 h 2 v -2 h 9.9999988 v 2 h 2 c 1.1,0 2,0.9 2,2 v 1 c 0,2.5499968 -1.92,4.6299968 -4.39,4.9399968 -0.63,1.5 -1.98,2.63 -3.609998,2.96 v 3.1 h 3.999998 v 2 H 6.9238792 v -2 H 10.92388 v -3.1 c -1.6300012,-0.33 -2.9800008,-1.46 -3.6100008,-2.96 -2.47,-0.31 -4.39,-2.39 -4.39,-4.9399968 v -1 c 0,-1.1 0.9,-2 2,-2 z m 13.9999988,3 v -1 h -2 V 11.12448 c 1.16,-0.42 2,-1.5199968 2,-2.8199968 z M 11.92388,14.30448 c 1.65,0 2.999998,-1.35 2.999998,-3 V 5.3044832 H 8.9238788 V 11.30448 c 0,1.65 1.3500012,3 3.0000012,3 z M 4.9238792,8.3044832 c 0,1.3 0.84,2.3999968 2,2.8199968 V 7.3044832 h -2 z"
     id="path1-2"
     style="fill:#000000;fill-opacity:1" /><path
     d="m 5.22836,5 h 2 V 3 h 10 v 2 h 2 c 1.1,0 2,0.9 2,2 v 1 c 0,2.55 -1.92,4.63 -4.39,4.94 -0.63,1.5 -1.98,2.63 -3.61,2.96 V 19 h 4 v 2 h -10 v -2 h 4 v -3.1 c -1.63,-0.33 -2.98,-1.46 -3.61,-2.96 -2.47,-0.31 -4.39,-2.39 -4.39,-4.94 V 7 c 0,-1.1 0.9,-2 2,-2 z m 14,3 V 7 h -2 v 3.82 c 1.16,-0.42 2,-1.52 2,-2.82 z m -7,6 c 1.65,0 3,-1.35 3,-3 V 5 h -6 v 6 c 0,1.65 1.35,3 3,3 z m -7,-6 c 0,1.3 0.84,2.4 2,2.82 V 7 h -2 z"
     id="path1"
     style="fill:#cccccc;fill-opacity:1" /></svg>
