<?xml version="1.0" encoding="UTF-8" standalone="no"?>
<svg
   enable-background="new 0 0 24 24"
   height="24"
   viewBox="0 0 24 24"
   width="24"
   fill="#b7b7b7"
   version="1.1"
   id="svg1"
   sodipodi:docname="dogear.complete.svg"
   inkscape:export-filename="dogear.complete.svg"
   inkscape:export-xdpi="96"
   inkscape:export-ydpi="96"
   xml:space="preserve"
   inkscape:version="1.4.2 (ebf0e940, 2025-05-08)"
   xmlns:inkscape="http://www.inkscape.org/namespaces/inkscape"
   xmlns:sodipodi="http://sodipodi.sourceforge.net/DTD/sodipodi-0.dtd"
   xmlns="http://www.w3.org/2000/svg"
   xmlns:svg="http://www.w3.org/2000/svg"><defs
     id="defs1" /><sodipodi:namedview
     id="namedview1"
     pagecolor="#ffffff"
     bordercolor="#000000"
     borderopacity="0.25"
     inkscape:showpageshadow="2"
     inkscape:pageopacity="0.0"
     inkscape:pagecheckerboard="0"
     inkscape:deskcolor="#d1d1d1"
     showgrid="false"
     inkscape:zoom="26.274056"
     inkscape:cx="10.885263"
     inkscape:cy="11.912892"
     inkscape:window-width="1680"
     inkscape:window-height="991"
     inkscape:window-x="0"
     inkscape:window-y="31"
     inkscape:window-maximized="1"
     inkscape:current-layer="svg1"><inkscape:page
       x="0"
       y="0"
       width="24"
       height="24"
       id="page2"
       margin="0"
       bleed="0" /></sodipodi:namedview><rect
     fill="none"
     height="24"
     width="24"
     id="rect1"
     x="0"
     y="0" /><path
     d="M 4.7208907,5.3298567 H 6.7462642 V 3.3044832 H 16.873131 v 2.0253735 h 2.025373 c 1.113956,0 2.025374,0.9114181 2.025374,2.0253737 v 1.0126867 c 0,2.5823479 -1.944359,4.6887359 -4.445694,5.0026699 -0.637994,1.519029 -2.005121,2.663366 -3.655799,2.997553 v 3.139328 h 4.050746 v 2.025374 H 6.7462642 V 19.507468 H 10.797012 V 16.36814 C 9.1463315,16.033953 7.7792048,14.889616 7.141212,13.370587 4.6398757,13.056653 2.695517,10.950265 2.695517,8.3679171 V 7.3552304 c 0,-1.1139556 0.9114182,-2.0253737 2.0253737,-2.0253737 z M 18.898504,8.3679171 V 7.3552304 h -2.025373 v 3.8684606 c 1.174717,-0.425329 2.025373,-1.5392811 2.025373,-2.8557739 z m -7.088805,6.0761179 c 1.670933,0 3.038058,-1.367127 3.038058,-3.03806 V 5.3298567 H 8.7716373 v 6.0761183 c 0,1.670933 1.3671287,3.03806 3.0380617,3.03806 z M 4.7208907,8.3679171 c 0,1.3164928 0.8506568,2.4304449 2.0253735,2.8557739 V 7.3552304 H 4.7208907 Z"
     id="path1-2"
     style="fill:#000000;fill-opacity:1;stroke-width:1.01268" /><path
     d="m 5.22836,5 h 2 V 3 h 10 v 2 h 2 c 1.1,0 2,0.9 2,2 v 1 c 0,2.55 -1.92,4.63 -4.39,4.94 -0.63,1.5 -1.98,2.63 -3.61,2.96 V 19 h 4 v 2 h -10 v -2 h 4 v -3.1 c -1.63,-0.33 -2.98,-1.46 -3.61,-2.96 -2.47,-0.31 -4.39,-2.39 -4.39,-4.94 V 7 c 0,-1.1 0.9,-2 2,-2 z m 14,3 V 7 h -2 v 3.82 c 1.16,-0.42 2,-1.52 2,-2.82 z m -7,6 c 1.65,0 3,-1.35 3,-3 V 5 h -6 v 6 c 0,1.65 1.35,3 3,3 z m -7,-6 c 0,1.3 0.84,2.4 2,2.82 V 7 h -2 z"
     id="path1"
     style="fill:#cccccc;fill-opacity:1" /></svg>
